# xmcd
#
# Track frame offsets:
# 150
# 5973
# 10568
# 16214
# 21061
# 25984
# 30966
# 34335
# 40949
# 45610
# 51823
# 55938
# 60769
# 65040
# 69901
# 74566
# 78951
# 85555
# 90456
# 95912
# 100983
# 105604
# 111184
# 116183
# 120617
# 125746
# 131034
# 136727
# 142014
# 146213
# 151616
# 158363
# 163711
# 169633
# 174360
# 180018
# 185910
# 190854
# 196822
# 203960
# 210365
# 216815
# 222600
# 227019
# 233397
# 240482
# 246306
# 251101
# 256079
# 261726
# 267688
# 272770
# 278481
# 283295
# 287343
# 292656
# 299654
# 305713
# 312433
# 315953
# 320144
# 325371
# 332160
# 338411
#
# Disc length: 4590 seconds
#
#
# Revision: 0
# Processed by: cddbd v1.5.2PL0 Copyright (c) Steve Scherf et al.
# Submitted via: FreeRIP 2.96 
#
DISCID=ad11ec40
DTITLE=Joanne K. Rowling - Harry Potter and the Deathly Hallows CD 6
DYEAR=2007
DGENRE=Audio Book
TTITLE0=311 Kreacher's Tale 33
TTITLE1=312 Kreacher's Tale 34
TTITLE2=313 Kreacher's Tale 35
TTITLE3=314 Kreacher's Tale 36
TTITLE4=315 Kreacher's Tale 37
TTITLE5=316 Kreacher's Tale 38
TTITLE6=317 Kreacher's Tale 39
TTITLE7=318 Kreacher's Tale 40
TTITLE8=319 Kreacher's Tale 41
TTITLE9=320 Kreacher's Tale 42
TTITLE10=321 Kreacher's Tale 43
TTITLE11=322 The Bribe 1
TTITLE12=323 The Bribe 2
TTITLE13=324 The Bribe 3
TTITLE14=325 The Bribe 4
TTITLE15=326 The Bribe 5
TTITLE16=327 The Bribe 6
TTITLE17=328 The Bribe 7
TTITLE18=329 The Bribe 8
TTITLE19=330 The Bribe 9
TTITLE20=331 The Bribe 10
TTITLE21=332 The Bribe 11
TTITLE22=333 The Bribe 12
TTITLE23=334 The Bribe 13
TTITLE24=335 The Bribe 14
TTITLE25=336 The Bribe 15
TTITLE26=337 The Bribe 16
TTITLE27=338 The Bribe 17
TTITLE28=339 The Bribe 18
TTITLE29=340 The Bribe 19
TTITLE30=341 The Bribe 20
TTITLE31=342 The Bribe 21
TTITLE32=343 The Bribe 22
TTITLE33=344 The Bribe 23
TTITLE34=345 The Bribe 24
TTITLE35=346 The Bribe 25
TTITLE36=347 The Bribe 26
TTITLE37=348 The Bribe 27
TTITLE38=349 The Bribe 28
TTITLE39=350 The Bribe 29
TTITLE40=351 The Bribe 30
TTITLE41=352 The Bribe 31
TTITLE42=353 The Bribe 32
TTITLE43=354 The Bribe 33
TTITLE44=355 The Bribe 34
TTITLE45=356 Magic is Might 1
TTITLE46=357 Magic is Might 2
TTITLE47=358 Magic is Might 3
TTITLE48=359 Magic is Might 4
TTITLE49=360 Magic is Might 5
TTITLE50=361 Magic is Might 6
TTITLE51=362 Magic is Might 7
TTITLE52=363 Magic is Might 8
TTITLE53=364 Magic is Might 9
TTITLE54=365 Magic is Might 10
TTITLE55=366 Magic is Might 11
TTITLE56=367 Magic is Might 12
TTITLE57=368 Magic is Might 13
TTITLE58=369 Magic is Might 14
TTITLE59=370 Magic is Might 15
TTITLE60=371 Magic is Might 16
TTITLE61=372 Magic is Might 17
TTITLE62=373 Magic is Might 18
TTITLE63=374 Magic is Might 19
EXTD=read by Steven Fry
EXTT0=
EXTT1=
EXTT2=
EXTT3=
EXTT4=
EXTT5=
EXTT6=
EXTT7=
EXTT8=
EXTT9=
EXTT10=
EXTT11=
EXTT12=
EXTT13=
EXTT14=
EXTT15=
EXTT16=
EXTT17=
EXTT18=
EXTT19=
EXTT20=
EXTT21=
EXTT22=
EXTT23=
EXTT24=
EXTT25=
EXTT26=
EXTT27=
EXTT28=
EXTT29=
EXTT30=
EXTT31=
EXTT32=
EXTT33=
EXTT34=
EXTT35=
EXTT36=
EXTT37=
EXTT38=
EXTT39=
EXTT40=
EXTT41=
EXTT42=
EXTT43=
EXTT44=
EXTT45=
EXTT46=
EXTT47=
EXTT48=
EXTT49=
EXTT50=
EXTT51=
EXTT52=
EXTT53=
EXTT54=
EXTT55=
EXTT56=
EXTT57=
EXTT58=
EXTT59=
EXTT60=
EXTT61=
EXTT62=
EXTT63=
PLAYORDER=
